# This file uses centimeters as units for non-parametric coordinates.

g default
v -14.000000 3.000000 19.219467
v 14.000000 3.000000 19.219467
v -14.000000 3.000000 4.219467
v 14.000000 3.000000 4.219467
v -14.000000 -3.000000 4.219467
v 14.000000 -3.000000 4.219467
v -9.333324 -3.000000 -4.019225
v -9.333324 3.000000 -4.019225
v 9.333335 -3.000000 -4.019225
v 9.333335 3.000000 -4.019225
v 9.333335 -3.000000 -20.859848
v 9.333335 3.000000 -20.859848
v 14.000000 3.000000 -20.859848
v 14.000000 -3.000000 -20.859848
v -14.000000 3.000000 -20.859848
v -9.333324 3.000000 -20.859848
v -9.333324 -3.000000 -20.859848
v -14.000000 -3.000000 -20.859848
vt 0.375000 0.250000
vt 0.625000 0.250000
vt 0.375000 0.500000
vt 0.625000 0.500000
vt 0.375000 0.750000
vt 0.625000 0.750000
vt 0.416667 0.750000
vt 0.416667 0.500000
vt 0.583333 0.750000
vt 0.583333 0.500000
vt 0.583333 0.750000
vt 0.583333 0.500000
vt 0.625000 0.500000
vt 0.625000 0.750000
vt 0.375000 0.500000
vt 0.416667 0.500000
vt 0.416667 0.750000
vt 0.375000 0.750000
vn 0.000000 0.000000 -1.000000
vn 0.000000 0.000000 -1.000000
vn 0.000000 0.000000 -1.000000
vn 0.000000 0.000000 -1.000000
vn 0.000000 0.000000 -1.000000
vn 0.000000 0.000000 -1.000000
vn 0.000000 0.000000 -1.000000
vn 0.000000 0.000000 -1.000000
vn 0.000000 0.000000 -1.000000
vn 0.000000 0.000000 -1.000000
vn 0.000000 0.000000 -1.000000
vn 0.000000 0.000000 -1.000000
vn -1.000000 0.000000 0.000000
vn -1.000000 0.000000 0.000000
vn -1.000000 0.000000 0.000000
vn -1.000000 0.000000 0.000000
vn 0.000000 1.000000 0.000000
vn 0.000000 1.000000 0.000000
vn 0.000000 1.000000 0.000000
vn 0.000000 1.000000 0.000000
vn 1.000000 0.000000 0.000000
vn 1.000000 0.000000 0.000000
vn 1.000000 0.000000 0.000000
vn 1.000000 0.000000 0.000000
vn 0.000000 -1.000000 0.000000
vn 0.000000 -1.000000 0.000000
vn 0.000000 -1.000000 0.000000
vn 0.000000 -1.000000 0.000000
vn 1.000000 0.000000 0.000000
vn 1.000000 0.000000 0.000000
vn 1.000000 0.000000 0.000000
vn 1.000000 0.000000 0.000000
vn 0.000000 -1.000000 0.000000
vn 0.000000 -1.000000 0.000000
vn 0.000000 -1.000000 0.000000
vn 0.000000 -1.000000 0.000000
vn -1.000000 0.000000 0.000000
vn -1.000000 0.000000 0.000000
vn -1.000000 0.000000 0.000000
vn -1.000000 0.000000 0.000000
vn 0.000000 1.000000 0.000000
vn 0.000000 1.000000 0.000000
vn 0.000000 1.000000 0.000000
vn 0.000000 1.000000 0.000000
vn 0.000000 1.000000 0.000000
vn 0.000000 1.000000 0.000000
s off
g stage
f 11/11/1 12/12/2 13/13/3 14/14/4
f 15/15/5 16/16/6 17/17/7 18/18/8
f 7/7/9 8/8/10 10/10/11 9/9/12
f 9/9/13 10/10/14 12/12/15 11/11/16
s 1
f 1/1/17 2/2/18 4/4/19 3/3/20
s off
f 4/4/21 6/6/22 14/14/23 13/13/24
f 6/6/25 9/9/26 11/11/27 14/14/28
f 8/8/29 7/7/30 17/17/31 16/16/32
f 7/7/33 5/5/34 18/18/35 17/17/36
f 5/5/37 3/3/38 15/15/39 18/18/40
s 1
f 10/10/41 4/4/19 13/13/42 12/12/43
f 3/3/20 4/4/19 10/10/41 8/8/44
f 3/3/20 8/8/44 16/16/45 15/15/46
